# xmcd CD database file
#
# Track frame offsets:
#	150
#	11509
#	22435
#	36977
#	51104
#	66271
#	81176
#	94498
#	108468
#	121232
#	134697
#	150134
#	166201
#	180376
#	193949
#	208347
#
# Disc length: 2975 seconds
#
# Revision: 0
# Processed by: cddbd v1.5.2PL0 Copyright (c) Steve Scherf et al.
# Submitted via: CDex 1.51
#
DISCID=e40b9d10
DTITLE=Various Artist - Jazz - The Essential Collection disc 7
DYEAR=1900
DGENRE=Jazz
TTITLE0=The Delta Rhythm Boys (feat. Ella Fitzgerald) - It's Only A Paper Moon
TTITLE1=Nat 'King' Cole Trio - Straighten Up and Fly Right
TTITLE2=Sarah Vaughan - Nature Boy
TTITLE3=Ella Fitzgerald - Into Each Life Some Rain Must Fall
TTITLE4=Artie Shaw - Summit Ridge Drive
TTITLE5=Duke Ellington and His Famous Orchestra - Don't Get Around Much Anymore (Never No Lament)
TTITLE6=Count Basie - All Of Me
TTITLE7=Benny Goodman and His Orchestra (feat Peggy Lee) - How Deep Is The Ocean
TTITLE8=Al Dexter and His Troopers - Pistol Packin' Mama
TTITLE9=Benny Goodman and His Orchestra - Darn That Dream
TTITLE10=Harry James and His Orchestra (feat. Helen Forrest) - I Had The Craziest Dream
TTITLE11=Benny Goodman and His Orchestra (feat. Art Lund) - Blue Skies
TTITLE12=Jimmy Dorsey and His Orchestra - Boston Tea Party
TTITLE13=Charlie Barnet - Skyliner
TTITLE14=Glen Gray (feat. Kenny Sargent With The Boresome Foursome and Pee Wee Hunt) - Don't Do It Darling
TTITLE15=Stan Kenton - Artistry In Rhythm
EXTD=
EXTT0=
EXTT1=
EXTT2=
EXTT3=
EXTT4=
EXTT5=
EXTT6=
EXTT7=
EXTT8=
EXTT9=
EXTT10=
EXTT11=
EXTT12=
EXTT13=
EXTT14=
EXTT15=
PLAYORDER=
